<?xml version="1.0" encoding="utf-8"?>
<!-- Generator: Adobe Illustrator 21.0.0, SVG Export Plug-In . SVG Version: 6.00 Build 0)  -->
<svg version="1.1" id="Layer_1" xmlns="http://www.w3.org/2000/svg" xmlns:xlink="http://www.w3.org/1999/xlink" x="0px" y="0px"
	 width="640px" height="360px" viewBox="0 0 640 360" style="enable-background:new 0 0 640 360;" xml:space="preserve">
<style type="text/css">
	.st0{fill:#FFFFFF;}
	.st1{fill:#CC961D;}
	.st2{fill:#9B0000;}
	.st3{font-family:'TektonPro-BoldObl';}
	.st4{font-size:30px;}
	.st5{font-size:20px;}
	.st6{font-family:'TektonPro-Bold';}
	.st7{font-size:19px;}
</style>
<rect width="637" height="360"/>
<path class="st0" d="M271,86l-41.5,89.6c-2.8,6-4,12.7-3.1,19.3c0.7,5.6,3,11.6,8.7,15.1c13,8,28,7,28,7h25c0,0,25.2,1.6,52.8-12
	c13.7-6.8,25.5-17.2,33.2-30.4c6.9-11.7,6.4-18.1,6.4-18.1s3-20-19-30c-18.5-8.5-28-7-49-7l15-33L271,86z"/>
<path class="st1" d="M277.5,97.5h33l-15,32h27l-10,20h-26l-11,23c0,0-3.3,7.5,2.1,11.8c1,0.8,2.2,1.2,3.5,1.2h15.3l-10,21h-26.4
	c-2.5,0-4.9-0.3-7.3-0.8c-6.4-1.5-16.9-5.4-16.2-15.2C237.5,176.5,277.5,97.5,277.5,97.5z"/>
<path class="st2" d="M300.5,185.5l-9,21c0,0,32.1,0.8,60.5-21.5c6.8-5.4,12.3-12.4,15.4-20.5c2.5-6.6,2.1-10.1,2.1-10.1s1-16-20-22
	c-13-4-23-3-23-3l-9,20c0,0,24,2,15,18S318.5,184.5,300.5,185.5z"/>
<text transform="matrix(0.9765 0 0 1 227.999 247.334)"><tspan x="0" y="0" class="st1 st3 st4">t</tspan><tspan x="13.1" y="0" class="st0 st3 st5">heater</tspan><tspan x="63.9" y="0" class="st6 st7"> </tspan><tspan x="67.4" y="0" class="st2 st3 st4">b</tspan><tspan x="80.8" y="0" class="st0 st3 st5">alkendam</tspan></text>
</svg>
